<?xml version="1.0" encoding="utf-8"?>
<!-- Generator: Adobe Illustrator 22.0.1, SVG Export Plug-In . SVG Version: 6.00 Build 0)  -->
<svg version="1.1" xmlns="http://www.w3.org/2000/svg" xmlns:xlink="http://www.w3.org/1999/xlink" x="0px" y="0px"
	 viewBox="0 0 1626.5 301.7" style="enable-background:new 0 0 1626.5 301.7;" xml:space="preserve">
<style type="text/css">
	.st0{fill:#FFFFFF;}
	.st1{fill:#0094FF;}
</style>
<g id="Space">
	<title>Devspace Logo pranshu</title>
	<path class="st0" d="M622.3,40.5c-0.9,2.1-3,3.5-5.4,3.5c-1.8,0-4.1-1.3-7-3.8c-3.6-3.1-7.5-6-11.6-8.5c-5.7-3.5-11.9-6.4-18.2-8.6
		c-7.3-2.6-16.3-3.9-27-3.9c-10.7,0-20.1,1.5-28.2,4.5c-7.6,2.7-14.5,6.9-20.4,12.4c-5.4,5.1-9.7,11.3-12.5,18.2
		c-2.8,6.9-4.3,14.3-4.3,21.8c0,10,2.1,18.2,6.3,24.7c4.4,6.6,10.1,12.3,16.7,16.6c7.4,4.8,15.3,8.6,23.6,11.5
		c8.8,3.1,17.8,6.2,27.1,9.2c9.3,3,18.3,6.4,27.1,10.1c8.5,3.5,16.4,8.1,23.6,13.8c7,5.6,12.7,12.5,16.7,20.4
		c4.2,8.1,6.3,18.2,6.3,30.2c0.1,11.9-2.1,23.7-6.3,34.8c-4,10.7-10.3,20.3-18.3,28.4c-8.4,8.3-18.4,14.7-29.5,19
		c-11.6,4.6-24.9,6.9-39.8,7c-19.4,0-36-3.4-50-10.3c-14-6.9-26.5-16.4-36.7-28.2l5.8-9.1c1.3-1.9,3.5-3.1,5.8-3.1
		c1.3,0,2.8,0.8,4.8,2.5c1.9,1.7,4.3,3.7,7.1,6.1c2.8,2.4,6.1,5,10,7.9c4.2,3.1,8.8,5.7,13.5,7.9c5.7,2.6,11.6,4.7,17.7,6.1
		c7.4,1.7,15,2.6,22.7,2.5c10.6,0.2,21.2-1.6,31.2-5.3c8.6-3.2,16.5-8.1,23.2-14.4c6.3-6.1,11.2-13.5,14.4-21.7
		c3.4-8.6,5-17.7,5-26.9c0-10.4-2.1-18.9-6.3-25.6c-4.3-6.8-10-12.5-16.7-16.8c-7.4-4.7-15.3-8.5-23.6-11.3c-8.8-3-17.8-6-27.1-8.9
		c-9.3-2.9-18.3-6.2-27.1-9.8c-8.5-3.4-16.4-8.1-23.6-13.8c-7-5.7-12.7-12.9-16.7-21c-4.2-8.4-6.3-18.8-6.3-31.4
		c0-9.8,1.9-19.4,5.6-28.4c3.7-9.1,9.3-17.3,16.4-24.2c7.7-7.3,16.8-13,26.7-16.8c10.6-4.2,22.7-6.3,36.3-6.3
		c15.2,0,28.9,2.4,41,7.3c12.4,5.1,23.7,12.6,33.1,22.2L622.3,40.5z"/>
	<path class="st0" d="M724.4,180.2v118.3h-21.2V4.8H779c34.4,0,60.4,7.5,77.9,22.6C874.4,42.5,883.1,64,883.1,92
		c0.1,12.2-2.3,24.3-7.2,35.5c-4.7,10.7-11.8,20.2-20.6,27.9c-9.6,8.2-20.8,14.3-32.8,18.2c-12.9,4.4-27.4,6.5-43.6,6.5L724.4,180.2
		z M724.4,163.2H779c13,0,24.6-1.8,34.9-5.4c9.6-3.2,18.4-8.3,26-14.9c7-6.2,12.6-13.9,16.4-22.5c3.9-8.9,5.8-18.6,5.7-28.3
		c0-22.6-6.9-39.9-20.8-52.1c-13.9-12.2-34.6-18.2-62.2-18.2h-54.6L724.4,163.2z"/>
	<path class="st0" d="M1370.4,249.1c1.3,0,2.6,0.5,3.5,1.4l8.3,8.9c-6.1,6.5-12.7,12.3-19.9,17.5c-7.4,5.3-15.3,9.7-23.6,13.3
		c-9,3.8-18.4,6.7-28,8.5c-11,2.1-22.3,3.1-33.5,3c-20.3,0-39-3.6-55.9-10.7c-16.5-6.8-31.4-17.2-43.6-30.3
		c-12.1-13.1-21.5-28.9-28.3-47.4s-10.2-39.2-10.2-61.8c0-22.3,3.5-42.6,10.5-61c6.5-17.6,16.5-33.8,29.5-47.4
		c12.8-13.3,28.3-23.8,45.4-30.7c17.6-7.3,37.1-10.9,58.4-10.9c9.8-0.1,19.6,0.7,29.3,2.4c8.5,1.5,16.8,3.8,24.8,6.8
		c7.6,2.9,14.9,6.7,21.7,11.1c7,4.6,13.7,9.8,19.9,15.4l-6.4,9.3c-1.2,1.7-3.1,2.6-5.2,2.5c-1.2,0-2.8-0.7-4.8-2.1
		c-1.9-1.4-4.4-3.2-7.4-5.4c-3-2.1-6.6-4.5-10.8-7.1c-4.8-2.8-9.8-5.2-15-7.1c-6.6-2.3-13.3-4.1-20.1-5.4
		c-8.6-1.5-17.3-2.2-25.9-2.1c-17.9,0-34.3,3.1-49.2,9.2c-14.6,5.9-27.8,14.9-38.6,26.4c-11.1,12-19.7,26.1-25.2,41.5
		c-6,16.2-9,34.5-9,54.7c0,20.8,3,39.3,8.9,55.6s14.2,30.1,24.7,41.4c10.4,11.2,23.1,20.1,37.3,25.9c14.8,6.1,30.6,9.2,46.6,9
		c9.4,0.1,18.8-0.6,28.1-2.1c7.8-1.3,15.4-3.3,22.7-6.2c6.8-2.7,13.2-6.1,19.3-10.2c6.2-4.3,12.1-9,17.6-14.2c0.6-0.5,1.3-1,2-1.4
		C1368.9,249.2,1369.6,249.1,1370.4,249.1z"/>
	<path class="st0" d="M1625,4.8v17.6h-154.6v118.7H1599v17.2h-128.6v122.4H1625v17.6h-176V4.8L1625,4.8z"/>
	<rect x="884.2" y="284.6" class="st1" width="216.4" height="15.6"/>
	<path class="st1" d="M903.7,247.1h177.5L992.4,33.5L903.7,247.1z M1103.1,259.4l-2.2,3.4H883.9l-2.2-3.4L988.5,2.1h7.7
		L1103.1,259.4z"/>
</g>
<g id="Layer_2">
	<path class="st0" d="M92.4,281c0.5,0,1,0.2,1.3,0.5l3.1,3.3c-2.3,2.4-4.8,4.6-7.4,6.6c-2.7,2-5.7,3.6-8.8,5
		c-3.4,1.4-6.9,2.5-10.5,3.2c-4.1,0.8-8.3,1.2-12.5,1.1c-7.6,0-14.6-1.3-20.9-4c-6.2-2.6-11.7-6.4-16.3-11.3
		c-4.5-4.9-8.1-10.8-10.6-17.7C7.3,260.7,6,253,6,244.6c0-8.3,1.3-15.9,3.9-22.8c2.4-6.6,6.2-12.6,11-17.7c4.8-5,10.6-8.9,17-11.5
		c6.6-2.7,13.9-4.1,21.8-4.1c3.7,0,7.3,0.3,10.9,0.9c3.2,0.6,6.3,1.4,9.3,2.6c2.8,1.1,5.6,2.5,8.1,4.1c2.6,1.7,5.1,3.6,7.4,5.7
		l-2.4,3.5c-0.4,0.6-1.2,1-1.9,0.9c-0.7-0.1-1.3-0.4-1.8-0.8c-0.7-0.5-1.6-1.2-2.7-2c-1.1-0.8-2.5-1.7-4-2.6
		c-1.8-1.1-3.7-1.9-5.6-2.6c-2.4-0.9-5-1.5-7.5-2c-3.2-0.6-6.4-0.8-9.7-0.8c-6.3-0.1-12.5,1.1-18.4,3.5c-5.5,2.2-10.4,5.6-14.4,9.8
		c-4.2,4.5-7.4,9.8-9.4,15.5c-2.2,6.1-3.4,12.9-3.4,20.4c0,7.8,1.1,14.7,3.3,20.8s5.3,11.2,9.2,15.4c3.9,4.2,8.6,7.5,13.9,9.7
		c5.5,2.3,11.4,3.4,17.4,3.4c3.5,0,7-0.2,10.5-0.8c2.9-0.5,5.8-1.3,8.5-2.3c2.5-1,4.9-2.3,7.2-3.8c2.3-1.6,4.5-3.3,6.6-5.3
		c0.2-0.2,0.5-0.4,0.7-0.5C91.8,281,92.1,281,92.4,281z"/>
	<path class="st0" d="M217.9,244.6c0,8.5-1.3,16.2-3.8,23.1c-2.3,6.6-6,12.6-10.7,17.7c-4.6,4.9-10.3,8.8-16.5,11.3
		c-6.4,2.7-13.5,4-21.3,4c-7.7,0-14.8-1.3-21.2-4c-6.2-2.6-11.9-6.4-16.5-11.3c-4.7-5.1-8.4-11.1-10.7-17.7
		c-2.6-6.9-3.8-14.6-3.8-23.1c0-8.4,1.3-16.1,3.8-23c2.3-6.6,6-12.6,10.7-17.7c4.6-4.9,10.3-8.8,16.5-11.4c6.4-2.7,13.5-4,21.2-4
		c7.8,0,14.9,1.3,21.3,4c6.3,2.6,11.9,6.4,16.5,11.4c4.7,5.1,8.4,11.1,10.7,17.7C216.6,228.5,217.9,236.1,217.9,244.6z M209.7,244.6
		c0-7.6-1.1-14.5-3.2-20.6s-5.1-11.3-9-15.5c-3.9-4.2-8.6-7.6-13.9-9.7c-5.4-2.2-11.5-3.4-18.1-3.4c-6.1-0.1-12.2,1.1-17.9,3.4
		c-5.3,2.2-10.1,5.5-14,9.7c-4.1,4.5-7.1,9.8-9.1,15.5c-2.1,6.1-3.2,13-3.2,20.6c0,7.7,1.1,14.6,3.2,20.7c1.9,5.7,5,11,9.1,15.4
		c3.9,4.2,8.6,7.5,14,9.7c5.7,2.3,11.8,3.4,17.9,3.3c6.6,0,12.6-1.1,18.1-3.3c5.3-2.1,10.1-5.5,13.9-9.7c4-4.5,7-9.7,9-15.4
		C208.6,259.1,209.7,252.3,209.7,244.6z"/>
	<path class="st0" d="M336,244.6c0,8.5-1.3,16.1-3.8,22.9c-2.3,6.4-6,12.3-10.7,17.3c-4.7,4.8-10.3,8.5-16.5,10.9
		c-6.4,2.5-13.5,3.8-21.3,3.8h-40V189.7h40c7.8,0,14.9,1.3,21.3,3.8c6.2,2.4,11.9,6.1,16.5,10.9c4.7,5,8.4,10.8,10.7,17.3
		C334.8,228.5,336,236.1,336,244.6z M327.8,244.6c0-7.6-1.1-14.5-3.2-20.5c-2.1-6-5.1-11.1-9-15.2c-3.9-4.2-8.6-7.4-13.9-9.5
		c-5.8-2.2-11.9-3.3-18.1-3.3h-32V293h32c6.6,0,12.6-1.1,18.1-3.3c5.3-2.1,10-5.3,13.9-9.5c3.8-4.1,6.8-9.2,9-15.2
		C326.8,259.1,327.8,252.2,327.8,244.6z"/>
	<path class="st0" d="M427.3,189.7v6.6h-57.8v44.3h48.1v6.4h-48.1v45.7h57.8v6.6h-65.7V189.7H427.3z"/>
	<path class="st1" d="M300,3.5h9.5c1,0,1.9,0.3,2.7,0.9c0.7,0.6,1.3,1.4,1.6,2.3l56.7,138c1.5,3.7,2.7,7.6,3.6,11.5
		c0.8-3.9,1.9-7.8,3.4-11.5l56.6-138c0.4-0.9,1-1.6,1.7-2.2c0.8-0.6,1.8-1,2.8-0.9h9.4l-68.7,166.4h-10.7L300,3.5z"/>
	<path class="st1" d="M283.6,3.5v10h-87.6v67.2H269v9.8h-72.9v69.4h87.5v10H184V3.5L283.6,3.5z"/>
	<path class="st1" d="M145.3,86.6c0,12.9-1.9,24.4-5.8,34.7c-3.8,10.3-9.2,19-16.2,26.2c-7.1,7.3-15.6,12.9-25,16.6
		c-9.7,3.8-20.5,5.8-32.3,5.8H5.3V3.5h60.7c11.8,0,22.6,1.9,32.3,5.8c9.4,3.7,18,9.3,25,16.6c7,7.2,12.4,16,16.2,26.2
		C143.4,62.3,145.3,73.8,145.3,86.6z M132.8,86.6c0-11.6-1.6-21.9-4.8-31s-7.7-16.8-13.6-23c-5.9-6.3-13.1-11.2-21.1-14.3
		c-8.2-3.3-17.4-4.9-27.4-4.9H17.4v146.8h48.6c10,0,19.2-1.6,27.4-4.9c8-3.1,15.2-8.1,21.1-14.4c5.8-6.3,10.4-13.9,13.6-23
		S132.8,98.2,132.8,86.6z"/>
</g>
</svg>
