<?xml version="1.0" encoding="utf-8"?>
<!-- Generator: Adobe Illustrator 22.0.1, SVG Export Plug-In . SVG Version: 6.00 Build 0)  -->
<svg version="1.1" id="Layer_1" xmlns="http://www.w3.org/2000/svg" xmlns:xlink="http://www.w3.org/1999/xlink" x="0px" y="0px"
	 viewBox="0 0 1852.8 798.2" style="enable-background:new 0 0 1852.8 798.2;" xml:space="preserve">
<style type="text/css">
	.st0{fill:#FFFFFF;}
	.st1{fill:#0094FF;}
</style>
<g id="Layer_1_1_">
	<title>Devspace Logo pranshu</title>
	<path class="st0" d="M917.2,36.4c-0.9,2-2.8,3.3-5,3.3c-1.7,0-3.8-1.2-6.5-3.6c-3.4-2.9-7-5.6-10.8-7.9c-5.4-3.3-11.1-6-17-8
		c-6.8-2.5-15.2-3.7-25.2-3.7s-18.8,1.4-26.4,4.2c-7.1,2.5-13.6,6.5-19.1,11.6c-5,4.8-9,10.6-11.7,17s-4,13.4-4,20.3
		c0,9.3,2,17,5.9,23c4.1,6.2,9.4,11.5,15.6,15.5c6.9,4.5,14.3,8.1,22,10.8c8.2,2.9,16.6,5.8,25.3,8.6s17.1,6,25.3,9.4
		c7.9,3.2,15.3,7.6,22,12.9c6.5,5.2,11.8,11.7,15.6,19.1c3.9,7.5,5.9,16.9,5.9,28.2c0.1,11.1-1.9,22.1-5.9,32.4
		c-3.8,9.9-9.6,19-17.1,26.5c-7.9,7.7-17.2,13.8-27.5,17.7c-10.8,4.3-23.2,6.5-37.2,6.5c-18.1,0-33.6-3.2-46.7-9.6
		c-13-6.4-24.7-15.3-34.3-26.3l5.4-8.5c1.2-1.8,3.3-2.9,5.4-2.9c1.2,0,2.7,0.8,4.5,2.3c1.8,1.6,4,3.5,6.6,5.7
		c2.6,2.3,5.7,4.7,9.3,7.4c4,2.9,8.2,5.3,12.6,7.4c5.3,2.4,10.8,4.4,16.5,5.7c6.9,1.6,14,2.4,21.1,2.3c9.9,0.2,19.8-1.5,29.1-4.9
		c8-3,15.4-7.5,21.6-13.4c5.9-5.7,10.5-12.6,13.5-20.2c3.1-8,4.7-16.5,4.7-25.1c0-9.7-2-17.7-5.9-23.9c-4-6.3-9.3-11.7-15.6-15.7
		c-6.9-4.4-14.3-7.9-22-10.6c-8.2-2.8-16.6-5.6-25.3-8.3s-17.1-5.7-25.3-9.1c-7.9-3.2-15.3-7.5-22-12.9c-6.5-5.3-11.9-12-15.6-19.6
		c-3.9-7.8-5.9-17.6-5.9-29.3c0-9.1,1.8-18.1,5.2-26.5c3.5-8.5,8.7-16.2,15.3-22.5c7.2-6.8,15.7-12.2,24.9-15.7
		c10.2-4,21.5-6,34.1-6c14.2,0,27,2.3,38.3,6.8c11.6,4.7,22.1,11.8,30.9,20.7L917.2,36.4z"/>
	<path class="st0" d="M1012.5,166.7v110.4h-19.7V3.1h70.7c32.1,0,56.4,7,72.7,21.1s24.5,34.1,24.5,60.2c0.1,11.4-2.1,22.7-6.7,33.1
		c-4.4,10-11,18.9-19.3,26c-9,7.6-19.4,13.4-30.6,17c-12,4.1-25.6,6.1-40.7,6.1L1012.5,166.7z M1012.5,150.8h50.9
		c12.1,0,23-1.7,32.5-5c8.9-3,17.2-7.7,24.3-13.9c6.6-5.8,11.8-13,15.3-21c3.6-8.3,5.4-17.3,5.3-26.4c0-21-6.5-37.2-19.4-48.6
		c-13-11.4-32.3-17-58-17h-50.9L1012.5,150.8z"/>
	<path class="st0" d="M1615.2,231c1.2,0,2.4,0.5,3.3,1.4l7.7,8.3c-5.6,6-11.9,11.5-18.6,16.4c-6.9,4.9-14.2,9.1-22,12.4
		c-8.4,3.6-17.2,6.2-26.1,7.9c-10.3,1.9-20.8,2.9-31.3,2.8c-19,0-36.4-3.3-52.2-10c-15.4-6.4-29.3-16-40.7-28.3
		c-11.3-12.2-20.1-26.9-26.4-44.3s-9.5-36.5-9.5-57.7c0-20.8,3.3-39.8,9.8-56.9c6.1-16.5,15.4-31.5,27.5-44.2
		c12-12.4,26.4-22.2,42.4-28.7c16.5-6.8,34.6-10.2,54.5-10.2c9.1-0.1,18.3,0.7,27.3,2.2c7.9,1.4,15.6,3.5,23.1,6.4
		c7.1,2.7,13.9,6.2,20.2,10.4c6.5,4.3,12.8,9.1,18.6,14.3l-6,8.7c-1.1,1.6-2.9,2.5-4.8,2.3c-1.2,0-2.7-0.7-4.4-2s-4.1-3-6.9-5
		s-6.1-4.2-10.1-6.6c-4.4-2.6-9.1-4.8-14-6.6c-6.1-2.2-12.4-3.8-18.8-5c-8-1.4-16.1-2.1-24.2-2c-16.7,0-32,2.9-45.9,8.6
		c-13.6,5.5-25.9,13.9-36,24.6c-10.4,11.2-18.4,24.4-23.5,38.7c-5.6,15.2-8.4,32.2-8.4,51c0,19.4,2.8,36.7,8.3,51.9
		s13.2,28.1,23,38.6c9.7,10.5,21.6,18.7,34.8,24.2c13.8,5.7,28.6,8.6,43.5,8.4c8.8,0.1,17.6-0.6,26.2-1.9c7.3-1.2,14.4-3.1,21.2-5.8
		c6.3-2.5,12.4-5.7,18-9.5c5.8-4,11.3-8.4,16.5-13.3c0.6-0.5,1.2-0.9,1.8-1.3C1613.8,231.1,1614.5,231,1615.2,231z"/>
	<path class="st0" d="M1852.8,3.1v16.5h-144.3v110.8h120v16.1h-120v114.2h144.3v16.5h-164.2V3.1H1852.8z"/>
	<rect x="1161.6" y="264.1" class="st0" width="201.9" height="14.6"/>
	<path class="st1" d="M230.6,140.1c0,21.2-3.2,40.2-9.5,57.1s-15.2,31.3-26.7,43.2c-11.6,12-25.7,21.3-41.2,27.3
		c-16,6.3-33.7,9.5-53.2,9.5H0V3.2h99.9c19.5,0,37.2,3.2,53.2,9.5c15.6,6,29.6,15.3,41.2,27.3c11.5,11.9,20.4,26.3,26.7,43.2
		S230.6,119,230.6,140.1z M210.1,140.1c0-19.1-2.6-36.1-7.9-51.1s-12.8-27.7-22.4-38c-9.7-10.4-21.6-18.4-34.8-23.6
		c-13.6-5.4-28.6-8.1-45.1-8.1h-80v241.8h80c16.5,0,31.6-2.7,45.1-8.1c13.2-5.2,25.1-13.3,34.8-23.6c9.6-10.3,17.1-23,22.4-37.9
		C207.4,176.4,210.1,159.3,210.1,140.1z"/>
	<path class="st1" d="M458.5,3.2v16.5H314.2v110.8h120.1v16.1h-120v114.2h144.1v16.5H294.3V3.2H458.5z"/>
	<path class="st1" d="M485.4,3.2h15.7c1.6-0.1,3.2,0.5,4.5,1.5c1.2,1,2.1,2.3,2.7,3.8l93.3,227.3c2.5,6.2,4.5,12.5,6,19
		c1.3-6.5,3.2-12.9,5.6-19L706.3,8.4c0.6-1.4,1.6-2.7,2.8-3.7c1.3-1.1,2.9-1.6,4.5-1.5h15.5L616,277.2h-17.6L485.4,3.2z"/>
	<path class="st0" d="M1179.8,229.2h165.6l-82.8-199.4L1179.8,229.2z M1365.8,240.6l-2.1,3.1h-202.4l-2.1-3.1l99.7-240.1h7.2
		L1365.8,240.6z"/>
	<title>Codespace logo pranshu</title>
</g>
<g id="Layer_2_1_">
	<path class="st1" d="M1065.5,592.1c-0.7,1.7-2.4,2.8-4.2,2.8c-1.4,0-3.2-1-5.5-3c-2.9-2.5-5.9-4.7-9.1-6.7c-4.5-2.8-9.3-5-14.3-6.8
		c-5.7-2.1-12.8-3.1-21.2-3.1c-7.5-0.1-15.1,1.1-22.2,3.6c-6,2.1-11.4,5.5-16,9.8c-4.3,4-7.6,8.9-9.8,14.3
		c-2.2,5.4-3.4,11.2-3.3,17.1c0,7.8,1.7,14.3,5,19.4c3.4,5.2,7.9,9.7,13.2,13.1c5.8,3.8,12,6.8,18.5,9c6.9,2.4,14,4.9,21.3,7.3
		c7.3,2.4,14.4,5,21.3,7.9c6.7,2.7,12.9,6.4,18.5,10.8c5.5,4.4,9.9,9.8,13.1,16.1c3.3,6.4,5,14.3,5,23.7c0.1,9.3-1.6,18.6-4.9,27.3
		c-3.2,8.4-8.2,16-14.5,22.3c-6.6,6.5-14.5,11.6-23.1,14.9c-9.1,3.6-19.6,5.5-31.3,5.5c-15.2,0-28.3-2.7-39.3-8.1
		c-11-5.4-20.8-12.9-28.9-22.1l4.6-7.2c1.1-1.5,2.7-2.4,4.6-2.4c1,0,2.2,0.6,3.8,2c1.5,1.3,3.4,2.9,5.6,4.8s4.8,3.9,7.9,6.2
		c3.3,2.4,6.9,4.5,10.6,6.2c4.5,2.1,9.1,3.7,13.9,4.8c5.8,1.4,11.8,2,17.8,2c8.3,0.1,16.6-1.3,24.5-4.2c6.8-2.5,13-6.4,18.2-11.3
		c4.9-4.8,8.8-10.6,11.3-17.1c2.6-6.7,4-13.9,3.9-21.1c0-8.2-1.7-14.9-5-20.1c-3.4-5.3-7.8-9.8-13.1-13.2c-5.8-3.7-12-6.7-18.5-8.9
		c-6.9-2.4-14-4.7-21.3-7s-14.4-4.8-21.3-7.7c-6.7-2.7-12.9-6.3-18.5-10.8c-5.5-4.5-10-10.1-13.1-16.5c-3.3-6.6-5-14.8-5-24.7
		c0-7.7,1.5-15.3,4.4-22.3c2.9-7.2,7.3-13.6,12.9-19c6.1-5.7,13.2-10.2,21-13.2c8.3-3.3,17.8-5,28.5-4.9c12,0,22.7,1.9,32.2,5.7
		c9.8,4,18.6,9.9,26,17.4L1065.5,592.1z"/>
	<path class="st1" d="M1145.7,701.9v92.9h-16.6V564.1h59.5c27.1,0,47.5,5.9,61.2,17.8c13.8,11.8,20.6,28.7,20.7,50.7
		c0.1,9.6-1.8,19.1-5.6,27.9c-3.7,8.4-9.3,15.9-16.2,21.9c-7.6,6.4-16.3,11.3-25.8,14.3c-10.1,3.4-21.5,5.1-34.2,5.1h-43V701.9z
		 M1145.7,688.5h42.9c9.3,0.1,18.6-1.3,27.4-4.2c7.5-2.5,14.5-6.5,20.5-11.7c5.5-4.9,9.9-11,12.9-17.7c3-7,4.6-14.6,4.5-22.3
		c0-17.7-5.5-31.4-16.4-40.9c-10.9-9.6-27.2-14.3-48.8-14.3h-42.9L1145.7,688.5L1145.7,688.5z"/>
	<path class="st1" d="M1653.2,756c1,0,2,0.4,2.8,1.1l6.5,7c-4.8,5.1-10,9.7-15.6,13.8c-5.8,4.1-12,7.6-18.5,10.4
		c-7.1,3-14.5,5.2-22,6.7c-8.7,1.6-17.5,2.4-26.3,2.4c-16,0-30.6-2.8-43.9-8.4c-13-5.4-24.7-13.5-34.2-23.8
		c-9.8-10.8-17.4-23.5-22.3-37.3c-5.3-14.6-8-30.8-8-48.6c0-17.5,2.7-33.5,8.2-47.9c5.1-13.9,13-26.5,23.2-37.3
		c10.1-10.5,22.3-18.7,35.7-24.2c13.9-5.7,29.2-8.6,45.9-8.6c7.7-0.1,15.4,0.6,23,1.9c6.7,1.2,13.2,3,19.5,5.4
		c6,2.3,11.7,5.2,17,8.7c5.5,3.6,10.7,7.7,15.7,12.1l-5.1,7.3c-0.9,1.3-2.5,2.1-4.1,2c-1.4-0.2-2.7-0.8-3.8-1.7
		c-1.5-1.1-3.5-2.6-5.8-4.2c-2.3-1.7-5.2-3.5-8.5-5.6c-3.8-2.2-7.7-4.1-11.8-5.5c-5.1-1.8-10.4-3.3-15.8-4.2
		c-6.7-1.2-13.5-1.8-20.4-1.7c-13.2-0.1-26.4,2.3-38.6,7.3c-11.5,4.6-21.8,11.7-30.3,20.7c-8.7,9.4-15.5,20.5-19.8,32.6
		c-4.7,12.8-7.1,27.1-7.1,43c0,16.3,2.3,30.9,7,43.7s11.1,23.7,19.4,32.5c8.2,8.8,18.2,15.8,29.3,20.4c11.6,4.8,24.1,7.2,36.6,7.1
		c7.4,0.1,14.8-0.5,22.1-1.6c6.1-1,12.1-2.7,17.9-4.9c5.3-2.1,10.4-4.8,15.2-8c4.9-3.3,9.5-7,13.8-11c0.5-0.4,1-0.7,1.6-1.1
		C1652.1,756.1,1652.6,756,1653.2,756z"/>
	<path class="st1" d="M1853.3,564.1V578h-121.5v93.3h101.1v13.5h-101.1V781h121.5v13.9H1715V564.1H1853.3z"/>
	<rect x="1271.2" y="783.9" class="st1" width="170" height="12.3"/>
	<path class="st0" d="M181.2,756.1c1,0,2,0.4,2.8,1.1l6.5,7c-4.8,5.1-10,9.7-15.7,13.8c-5.8,4.1-12,7.6-18.5,10.4
		c-7.1,3-14.5,5.2-22,6.7c-8.7,1.6-17.5,2.4-26.3,2.4c-16,0-30.6-2.8-43.9-8.4c-13-5.4-24.7-13.5-34.2-23.8
		C20.3,755,12.8,742.6,7.5,728s-8-30.8-8-48.6c0-17.5,2.7-33.5,8.2-47.9c5.1-13.9,13-26.5,23.1-37.3c10.1-10.5,22.2-18.7,35.7-24.1
		c13.9-5.7,29.2-8.6,45.9-8.6c7.7-0.1,15.4,0.6,23,1.9c6.6,1.2,13.2,3,19.5,5.4c6,2.3,11.7,5.2,17,8.7c5.5,3.6,10.7,7.7,15.7,12.1
		l-5.1,7.3c-0.9,1.3-2.5,2.1-4.1,2c-1.4-0.2-2.7-0.8-3.8-1.7c-1.5-1.1-3.4-2.6-5.8-4.2c-2.3-1.7-5.2-3.5-8.5-5.5
		c-3.8-2.2-7.7-4.1-11.8-5.5c-5.1-1.8-10.4-3.3-15.8-4.2c-6.7-1.2-13.5-1.8-20.4-1.7c-13.2-0.2-26.4,2.3-38.6,7.3
		c-11.5,4.6-21.8,11.7-30.3,20.7c-8.8,9.4-15.5,20.5-19.8,32.6c-4.7,12.8-7.1,27.1-7.1,43c0,16.3,2.3,30.9,7,43.7
		s11.1,23.7,19.4,32.5c8.2,8.8,18.2,15.8,29.3,20.4c11.6,4.8,24,7.2,36.6,7.1c7.4,0.1,14.8-0.5,22.1-1.6c6.1-1,12.1-2.6,17.9-4.9
		c5.3-2.1,10.4-4.8,15.2-8c4.9-3.3,9.5-7,13.9-11.1c0.5-0.4,1-0.7,1.5-1.1C180,756.1,180.6,756,181.2,756.1z"/>
	<path class="st0" d="M445.1,679.4c0,17.8-2.7,34-8,48.5c-4.9,13.8-12.6,26.4-22.5,37.2c-9.7,10.3-21.6,18.4-34.7,23.8
		c-13.5,5.6-28.4,8.4-44.8,8.4c-16.2,0-31-2.8-44.5-8.4c-13.1-5.4-25-13.5-34.7-23.9c-10-10.7-17.6-23.4-22.6-37.2
		c-5.4-14.5-8.1-30.7-8.1-48.5c0-17.7,2.7-33.8,8.1-48.3c4.9-13.8,12.6-26.4,22.6-37.2c9.8-10.3,21.6-18.5,34.7-23.9
		c13.5-5.7,28.3-8.5,44.5-8.5c16.4,0,31.4,2.8,44.8,8.4c13.2,5.4,25,13.5,34.7,23.9c9.9,10.8,17.6,23.4,22.5,37.3
		C442.5,645.6,445.1,661.7,445.1,679.4z M427.8,679.4c0-16.1-2.2-30.5-6.7-43.4s-10.7-23.7-18.8-32.6c-8.1-8.9-18.1-15.9-29.3-20.5
		c-11.4-4.7-24.1-7.1-38-7.1c-12.9-0.2-25.6,2.3-37.6,7.1c-11.2,4.6-21.2,11.6-29.3,20.5c-8.5,9.5-15,20.6-19.1,32.6
		c-4.5,12.8-6.8,27.3-6.8,43.4c0,16.2,2.3,30.7,6.8,43.4c4.1,12,10.6,23.1,19.1,32.5c8.2,8.9,18.2,15.8,29.3,20.4
		c11.9,4.8,24.7,7.2,37.6,7c13.9,0,26.6-2.3,38-7c11.2-4.5,21.2-11.5,29.3-20.4c8.4-9.4,14.8-20.5,18.8-32.5
		C425.6,710.1,427.8,695.6,427.8,679.4z"/>
	<path class="st0" d="M693.6,679.4c0,17.8-2.7,33.9-8,48.1c-4.9,13.5-12.6,25.9-22.5,36.4c-9.8,10.1-21.6,17.9-34.7,23
		c-13.5,5.3-28.4,8-44.8,8h-84.1V564.2h84c16.4,0,31.4,2.7,44.8,8c13.1,5.1,24.9,12.9,34.7,23c9.9,10.4,17.6,22.8,22.5,36.4
		C690.9,645.7,693.6,661.7,693.6,679.4z M676.3,679.4c0-16.1-2.2-30.4-6.7-43s-10.7-23.3-18.8-31.9c-8.2-8.7-18.2-15.5-29.3-19.9
		c-12.1-4.7-25-7-38-6.9h-67.3v203.7h67.3c13.9,0,26.6-2.3,38-6.9c11.1-4.4,21.1-11.2,29.3-19.9c8.1-8.7,14.4-19.3,18.8-32
		C674.1,710,676.3,695.6,676.3,679.4z"/>
	<path class="st0" d="M885.5,564.2V578H764v93.3h101.1v13.5H764V781h121.5v13.9H747.2V564.2H885.5z"/>
	<path class="st1" d="M1286.6,754.5H1426l-69.7-167.9L1286.6,754.5z M1443.2,764.1l-1.8,2.6H1271l-1.8-2.6l83.9-202.2h6.1
		L1443.2,764.1z"/>
</g>
<g id="Layer_3">
	<rect x="924.2" y="368.5" class="st1" width="4.4" height="95.6"/>
	<rect x="878.6" y="414.1" class="st1" width="95.6" height="4.4"/>
</g>
</svg>
