<svg xmlns="http://www.w3.org/2000/svg" viewBox="0 0 1882.8 239.69"><defs><style>.a,.c{fill:#0094ff;}.b{fill:#fff;}.c{fill-rule:evenodd;}</style></defs><title>Codespace logo pranshu</title><path class="a" d="M1109.32,91.55a4.67,4.67,0,0,1-4.31,2.81c-1.44,0-3.3-1-5.56-3.06a74.07,74.07,0,0,0-9.23-6.79,73.24,73.24,0,0,0-14.53-6.87q-8.73-3.15-21.52-3.15a63.94,63.94,0,0,0-22.51,3.65,47.22,47.22,0,0,0-16.28,9.93,42.31,42.31,0,0,0-10,14.57A45.15,45.15,0,0,0,1002,120q0,11.93,5.06,19.71A45.58,45.58,0,0,0,1020.42,153a86.68,86.68,0,0,0,18.82,9.19q10.53,3.72,21.64,7.37t21.64,8a78.1,78.1,0,0,1,18.82,11,50.52,50.52,0,0,1,13.35,16.31q5.05,9.69,5.06,24.09a76,76,0,0,1-5,27.74A64.78,64.78,0,0,1,1100,279.34a68.86,68.86,0,0,1-23.51,15.15q-13.92,5.55-31.8,5.55-23.18,0-39.9-8.2a94,94,0,0,1-29.32-22.44l4.64-7.29a5.85,5.85,0,0,1,4.64-2.48c1,0,2.26.66,3.81,2s3.43,2.95,5.64,4.88,4.86,4,8,6.3a65.84,65.84,0,0,0,10.78,6.29,76,76,0,0,0,14.09,4.88,74.66,74.66,0,0,0,18.08,2,68.8,68.8,0,0,0,24.87-4.22,54.44,54.44,0,0,0,18.49-11.51A48.92,48.92,0,0,0,1100,252.92a57.55,57.55,0,0,0,4-21.44q0-12.42-5.06-20.45a43.7,43.7,0,0,0-13.35-13.42,86.6,86.6,0,0,0-18.82-9q-10.53-3.65-21.64-7.12t-21.64-7.78a74.51,74.51,0,0,1-18.82-11A50.47,50.47,0,0,1,991.33,146q-5.05-10-5.05-25.09a59.4,59.4,0,0,1,4.47-22.69,56.71,56.71,0,0,1,13.1-19.29,64.53,64.53,0,0,1,21.32-13.41q12.67-5.05,28.93-5,18.24,0,32.75,5.79a78.47,78.47,0,0,1,26.44,17.72Z" transform="translate(-26.67 -60.42)"/><path class="a" d="M1190.79,203v94.39H1173.9V63.07h60.44q41.23,0,62.18,18.05t21,51.5a69.43,69.43,0,0,1-5.71,28.32,63,63,0,0,1-16.48,22.27,77,77,0,0,1-26.17,14.57q-15.39,5.22-34.77,5.22Zm0-13.58h43.55a83.68,83.68,0,0,0,27.82-4.31,61.24,61.24,0,0,0,20.78-11.92,51.72,51.72,0,0,0,13.08-18,55.42,55.42,0,0,0,4.56-22.6q0-27-16.64-41.57t-49.6-14.57h-43.55Z" transform="translate(-26.67 -60.42)"/><path class="a" d="M1706.29,258a3.83,3.83,0,0,1,2.81,1.16l6.62,7.12a108.89,108.89,0,0,1-15.89,14,99.2,99.2,0,0,1-18.8,10.6,110,110,0,0,1-22.35,6.78,138.52,138.52,0,0,1-26.75,2.41q-24.35,0-44.63-8.53a99.22,99.22,0,0,1-34.77-24.18,110.82,110.82,0,0,1-22.6-37.84q-8.12-22.19-8.12-49.35,0-26.65,8.36-48.68a110.93,110.93,0,0,1,23.52-37.84A105,105,0,0,1,1590,69.11q21.12-8.69,46.62-8.69a132.42,132.42,0,0,1,23.35,1.9,106.84,106.84,0,0,1,19.79,5.47,92.51,92.51,0,0,1,17.3,8.86,132.64,132.64,0,0,1,15.9,12.25l-5.13,7.45a4.63,4.63,0,0,1-4.14,2,7,7,0,0,1-3.81-1.74q-2.32-1.74-5.88-4.3c-2.38-1.72-5.25-3.59-8.61-5.64a70.68,70.68,0,0,0-12-5.63,101.8,101.8,0,0,0-16.06-4.3,111,111,0,0,0-20.7-1.74,102.14,102.14,0,0,0-39.25,7.37,87.9,87.9,0,0,0-30.8,21,96.24,96.24,0,0,0-20.12,33.12q-7.2,19.45-7.2,43.63,0,24.84,7.12,44.38t19.71,33a85.23,85.23,0,0,0,29.72,20.7,95,95,0,0,0,37.18,7.2,137,137,0,0,0,22.44-1.65,88.37,88.37,0,0,0,18.13-5,82,82,0,0,0,15.4-8.11A115.94,115.94,0,0,0,1703,259.46a13.38,13.38,0,0,1,1.58-1.07A3.45,3.45,0,0,1,1706.29,258Z" transform="translate(-26.67 -60.42)"/><path class="a" d="M1909.47,63.07V77.14H1786.1v94.72h102.67v13.75H1786.1v97.7h123.37v14.08H1769V63.07Z" transform="translate(-26.67 -60.42)"/><rect class="a" x="1291.65" y="225.92" width="172.71" height="12.45"/><path class="b" d="M211.14,258.05a3.87,3.87,0,0,1,2.82,1.16l6.62,7.12a109.42,109.42,0,0,1-15.9,14,98.57,98.57,0,0,1-18.79,10.6,109.94,109.94,0,0,1-22.36,6.79,138.45,138.45,0,0,1-26.74,2.4q-24.34,0-44.63-8.53a99,99,0,0,1-34.77-24.17q-14.51-15.66-22.61-37.84t-8.11-49.35q0-26.65,8.36-48.69A110.71,110.71,0,0,1,58.54,93.7,104.72,104.72,0,0,1,94.81,69.19q21.12-8.7,46.62-8.7a132.37,132.37,0,0,1,23.35,1.91,107.29,107.29,0,0,1,19.78,5.46,93.5,93.5,0,0,1,17.31,8.86A133.79,133.79,0,0,1,217.77,89l-5.14,7.45a4.63,4.63,0,0,1-4.14,2,7,7,0,0,1-3.81-1.74q-2.31-1.74-5.87-4.31t-8.62-5.63a69.45,69.45,0,0,0-12-5.63,101,101,0,0,0-16.06-4.3,111.12,111.12,0,0,0-20.7-1.74,101.92,101.92,0,0,0-39.25,7.37,87.9,87.9,0,0,0-30.8,21,95.9,95.9,0,0,0-20.12,33.12q-7.2,19.46-7.2,43.63,0,24.84,7.12,44.38t19.7,33a85.49,85.49,0,0,0,29.73,20.7,95,95,0,0,0,37.17,7.2,135.75,135.75,0,0,0,22.44-1.66,87.56,87.56,0,0,0,18.13-5,81.73,81.73,0,0,0,15.4-8.12,115.91,115.91,0,0,0,14.08-11.26,12.36,12.36,0,0,1,1.57-1.08A3.61,3.61,0,0,1,211.14,258.05Z" transform="translate(-26.67 -60.42)"/><path class="b" d="M479.24,180.22q0,27.17-8.11,49.27a109.12,109.12,0,0,1-22.86,37.75A101.1,101.1,0,0,1,413,291.42Q392.47,300,367.46,300q-24.68,0-45.21-8.53A101.19,101.19,0,0,1,287,267.24a110.19,110.19,0,0,1-22.93-37.75q-8.21-22.11-8.2-49.27,0-27,8.2-49.1A110.23,110.23,0,0,1,287,93.36a102,102,0,0,1,35.27-24.25q20.53-8.61,45.21-8.62,25,0,45.54,8.53a100.63,100.63,0,0,1,35.27,24.26,110,110,0,0,1,22.86,37.84Q479.23,153.23,479.24,180.22Zm-17.55,0q0-24.51-6.79-44.05t-19.13-33.12a82,82,0,0,0-29.72-20.78q-17.4-7.2-38.59-7.2a98.43,98.43,0,0,0-38.17,7.2,83.79,83.79,0,0,0-29.81,20.78,94.61,94.61,0,0,0-19.37,33.12q-6.87,19.54-6.87,44.05,0,24.67,6.87,44.13a94.61,94.61,0,0,0,19.37,33,83,83,0,0,0,29.81,20.7,99.34,99.34,0,0,0,38.17,7.12q21.19,0,38.59-7.12a81.18,81.18,0,0,0,29.72-20.7,95.09,95.09,0,0,0,19.13-33Q461.68,204.9,461.69,180.22Z" transform="translate(-26.67 -60.42)"/><path class="b" d="M731.6,180.22q0,27.17-8.11,48.85A105.63,105.63,0,0,1,700.64,266a99.13,99.13,0,0,1-35.27,23.35q-20.54,8.11-45.54,8.11H534.38V63.14h85.45q25,0,45.54,8.12a99.13,99.13,0,0,1,35.27,23.35,105.58,105.58,0,0,1,22.85,36.92Q731.61,153.24,731.6,180.22Zm-17.55,0q0-24.51-6.79-43.72t-19.12-32.45a81.45,81.45,0,0,0-29.73-20.21,103.14,103.14,0,0,0-38.58-7H551.44V283.72h68.39q21.2,0,38.58-7a81.31,81.31,0,0,0,29.73-20.2q12.33-13.25,19.12-32.46T714.05,180.22Z" transform="translate(-26.67 -60.42)"/><path class="b" d="M926.51,63.14V77.22H803.14v94.72H905.81v13.75H803.14v97.7H926.51v14.07H786.08V63.14Z" transform="translate(-26.67 -60.42)"/><path class="c" d="M1333.88,256.42h141.59l-70.8-170.51ZM1493,266.2l-1.78,2.67H1318.12l-1.79-2.67,85.26-205.34h6.17Z" transform="translate(-26.67 -60.42)"/></svg>
