<svg id="Layer_1" data-name="Layer 1" xmlns="http://www.w3.org/2000/svg" xmlns:xlink="http://www.w3.org/1999/xlink" viewBox="0 0 50.88 52.8"><defs><style>.cls-1{fill:#fff;}.cls-2{clip-path:url(#clip-path);}</style><clipPath id="clip-path" transform="translate(1 1)"><rect class="cls-1" x="-1" y="-1" width="50.88" height="52.8"/></clipPath></defs><title>Triangle circle square</title><rect class="cls-1" width="50.88" height="52.8"/><g class="cls-2"><path class="cls-1" d="M23.8,14a7.2,7.2,0,1,0-7.2-7.2A7.21,7.21,0,0,0,23.8,14Zm0-12.8a5.6,5.6,0,1,1-5.6,5.6,5.6,5.6,0,0,1,5.6-5.6Zm0,0" transform="translate(1 1)"/><path class="cls-1" d="M14.89,40.84a.77.77,0,0,0,0-.79L7.69,27.25a.82.82,0,0,0-1.39,0L-.9,40.05a.77.77,0,0,0,0,.79.79.79,0,0,0,.69.4H14.2a.79.79,0,0,0,.69-.4ZM1.17,39.64,7,29.27l5.83,10.37Zm0,0" transform="translate(1 1)"/></g><path class="cls-1" d="M49.4,27.64a.8.8,0,0,0-.8-.8H35.8a.8.8,0,0,0-.8.8v12.8a.8.8,0,0,0,.8.8H48.6a.8.8,0,0,0,.8-.8Zm-1.6,12H36.6V28.44H47.8Zm0,0" transform="translate(1 1)"/><path class="cls-1" d="M23.8,45.24a19.12,19.12,0,0,1-10.42-3.07l-.87,1.34a20.8,20.8,0,0,0,22.94-.24L34.55,42A19.11,19.11,0,0,1,23.8,45.24Zm0,0" transform="translate(1 1)"/><path class="cls-1" d="M43,25.27l1.61-.06A20.77,20.77,0,0,0,33,7.36l-.7,1.43A19.18,19.18,0,0,1,43,25.27Zm0,0" transform="translate(1 1)"/><path class="cls-1" d="M4.66,27.58c0-.51-.06-1-.06-1.54A19.11,19.11,0,0,1,15.35,8.79l-.7-1.43A20.66,20.66,0,0,0,3,26c0,.56,0,1.12.07,1.66Zm0,0" transform="translate(1 1)"/><path class="cls-1" d="M12,5.48l1.13,1.13,2.41-2.4a.81.81,0,0,0,0-1.14L13.16.67,12,1.8l1,1H7.8v1.6h5.27Zm0,0" transform="translate(1 1)"/><path class="cls-1" d="M46.2,18a.8.8,0,0,0,.57-.24l2.39-2.39L48,14.27l-1,1V10H45.4v5.27l-1-1-1.14,1.14,2.4,2.39a.81.81,0,0,0,.57.24Zm0,0" transform="translate(1 1)"/><path class="cls-1" d="M6.43,43.07,4,45.48l1.13,1.13,1-1v5.27H7.8V45.57l1,1L10,45.48,7.57,43.07a.81.81,0,0,0-1.14,0Zm0,0" transform="translate(1 1)"/><path class="cls-1" d="M31,25.24A7.24,7.24,0,0,0,27.4,19l-.8,1.39a5.59,5.59,0,0,1-1.42,10.27l.94-1.86-1.44-.72-1.59,3.2a.8.8,0,0,0,.14.93l2.41,2.4,1.13-1.13-1.25-1.25a7.22,7.22,0,0,0,5.48-7Zm0,0" transform="translate(1 1)"/><path class="cls-1" d="M20.2,31.48l.8-1.39a5.6,5.6,0,0,1,1.41-10.27l-.93,1.86,1.43.72,1.61-3.2a.81.81,0,0,0-.16-.93L22,15.87,20.83,17l1.25,1.24A7.2,7.2,0,0,0,20.2,31.48Zm0,0" transform="translate(1 1)"/></svg>