<svg xmlns="http://www.w3.org/2000/svg" viewBox="0 0 1852.77 280.17"><defs><style>.a,.c{fill:#fff;}.b{fill:#0094ff;}.c{fill-rule:evenodd;}</style></defs><title>Devspace Logo pranshu</title><path class="a" d="M957.87,66.09a5.47,5.47,0,0,1-5,3.29q-2.52,0-6.5-3.58a85,85,0,0,0-10.79-7.94,86.1,86.1,0,0,0-17-8q-10.2-3.68-25.16-3.67T867.07,50.4A55.17,55.17,0,0,0,848,62a49.55,49.55,0,0,0-11.66,17,53,53,0,0,0-4,20.33q0,13.94,5.91,23a53.24,53.24,0,0,0,15.61,15.49,101.46,101.46,0,0,0,22,10.75q12.32,4.35,25.3,8.61t25.3,9.39a91.61,91.61,0,0,1,22,12.88,59.09,59.09,0,0,1,15.61,19.07q5.91,11.32,5.91,28.17a88.66,88.66,0,0,1-5.9,32.43A75.56,75.56,0,0,1,947,285.65a80.3,80.3,0,0,1-27.49,17.72q-16.26,6.48-37.18,6.49-27.11,0-46.66-9.59A109.92,109.92,0,0,1,801.42,274l5.42-8.52a6.81,6.81,0,0,1,5.42-2.91q1.75,0,4.46,2.33t6.6,5.71q3.87,3.39,9.3,7.35a76,76,0,0,0,12.61,7.36,88.44,88.44,0,0,0,16.47,5.71,87.56,87.56,0,0,0,21.14,2.33,80.34,80.34,0,0,0,29.08-4.94A63.38,63.38,0,0,0,933.54,275,57.07,57.07,0,0,0,947,254.77a67.34,67.34,0,0,0,4.65-25.07q0-14.52-5.91-23.92a51.19,51.19,0,0,0-15.61-15.68,101.11,101.11,0,0,0-22-10.55q-12.32-4.26-25.3-8.33t-25.3-9.1a86.91,86.91,0,0,1-22-12.87,58.86,58.86,0,0,1-15.61-19.56Q814,118,814,100.36a69.36,69.36,0,0,1,5.23-26.53,66,66,0,0,1,15.32-22.55,75.25,75.25,0,0,1,24.91-15.69q14.84-5.9,33.84-5.9,21.33,0,38.29,6.77a91.76,91.76,0,0,1,30.91,20.72Z" transform="translate(-40.66 -29.69)"/><path class="a" d="M1053.12,196.39V306.76h-19.74v-274h70.67q48.21,0,72.7,21.1t24.49,60.22a80.85,80.85,0,0,1-6.68,33.11,73.53,73.53,0,0,1-19.26,26,90.19,90.19,0,0,1-30.59,17q-18,6.09-40.66,6.09Zm0-15.87h50.93q18.2,0,32.52-5a71.42,71.42,0,0,0,24.3-13.94,60.5,60.5,0,0,0,15.3-21,64.83,64.83,0,0,0,5.32-26.42q0-31.56-19.45-48.6t-58-17h-50.93Z" transform="translate(-40.66 -29.69)"/><path class="a" d="M1655.86,260.68a4.48,4.48,0,0,1,3.29,1.35l7.74,8.33a127.68,127.68,0,0,1-18.58,16.36,115.91,115.91,0,0,1-22,12.39,128.92,128.92,0,0,1-26.14,7.94,161.91,161.91,0,0,1-31.27,2.81q-28.45,0-52.18-10a115.94,115.94,0,0,1-40.66-28.26q-16.93-18.3-26.43-44.25t-9.48-57.7q0-31.17,9.77-56.92a129.7,129.7,0,0,1,27.5-44.24,122.56,122.56,0,0,1,42.4-28.66q24.69-10.16,54.5-10.16a155.22,155.22,0,0,1,27.3,2.22,126.05,126.05,0,0,1,23.14,6.39A109.06,109.06,0,0,1,1645,48.66,157.53,157.53,0,0,1,1663.6,63l-6,8.71a5.41,5.41,0,0,1-4.84,2.33c-1.16,0-2.65-.68-4.45-2s-4.1-3-6.88-5-6.13-4.19-10.06-6.58a82.34,82.34,0,0,0-14-6.59,118.7,118.7,0,0,0-18.78-5,129.54,129.54,0,0,0-24.21-2q-25,0-45.88,8.61a103,103,0,0,0-36,24.59,112.37,112.37,0,0,0-23.52,38.73q-8.43,22.74-8.42,51,0,29.06,8.32,51.9t23,38.62a99.84,99.84,0,0,0,34.76,24.2,110.91,110.91,0,0,0,43.46,8.43,159.6,159.6,0,0,0,26.24-1.94,102.23,102.23,0,0,0,21.2-5.81,95.23,95.23,0,0,0,18-9.49A136.87,136.87,0,0,0,1652,262.42a12.11,12.11,0,0,1,1.84-1.26A4.12,4.12,0,0,1,1655.86,260.68Z" transform="translate(-40.66 -29.69)"/><path class="a" d="M1893.43,32.79V49.24H1749.18V160h120v16.07h-120V290.3h144.25v16.46H1729.24v-274Z" transform="translate(-40.66 -29.69)"/><rect class="a" x="1161.58" y="264.15" width="201.93" height="14.56"/><path class="b" d="M271.26,169.76q0,31.77-9.49,57.12t-26.72,43.18a115.66,115.66,0,0,1-41.24,27.3q-24,9.5-53.24,9.49H40.66v-274h99.91q29.24,0,53.24,9.49a115.92,115.92,0,0,1,41.24,27.3q17.23,17.82,26.72,43.18T271.26,169.76Zm-20.52,0q0-28.65-7.94-51.11T220.44,80.7a95.06,95.06,0,0,0-34.76-23.62q-20.33-8.13-45.11-8.14h-80V290.78h80q24.78,0,45.11-8.14A95.06,95.06,0,0,0,220.44,259q14.42-15.48,22.36-37.95T250.74,169.76Z" transform="translate(-40.66 -29.69)"/><path class="b" d="M499.15,32.87V49.33H354.9V160.08H475v16.07h-120V290.39H499.15v16.46H335v-274Z" transform="translate(-40.66 -29.69)"/><path class="b" d="M526.06,32.87h15.68a6.7,6.7,0,0,1,4.45,1.46,9.48,9.48,0,0,1,2.71,3.77l93.33,227.31a121.32,121.32,0,0,1,6,19,105.52,105.52,0,0,1,5.62-19L747,38.1a10.35,10.35,0,0,1,2.81-3.68,6.81,6.81,0,0,1,4.54-1.55h15.49l-113.07,274H639.13Z" transform="translate(-40.66 -29.69)"/><path class="c" d="M1220.43,258.86H1386L1303.21,59.49Zm186.07,11.43-2.09,3.13H1202l-2.08-3.13L1299.6,30.21h7.21Z" transform="translate(-40.66 -29.69)"/></svg>
