<svg id="Capa_1" data-name="Capa 1" xmlns="http://www.w3.org/2000/svg" viewBox="0 0 433.5 512"><defs><style>.cls-1{fill:#fff;}</style></defs><title>mike</title><path class="cls-1" d="M438.84,33.7A115.48,115.48,0,0,0,386.39,3.6a7.5,7.5,0,1,0-3.79,14.52,100.55,100.55,0,0,1,61.82,147.13L307.27,28.1A100.27,100.27,0,0,1,351.81,15,7.5,7.5,0,1,0,351,0a115.06,115.06,0,0,0-55.14,17.43A17.48,17.48,0,0,0,274.44,20L261.73,32.7a17.46,17.46,0,0,0-2.58,21.42A115.07,115.07,0,0,0,242,125.51L48.56,360.82a7.51,7.51,0,0,0,.49,10.07l20.48,20.48-25.76,42.1a30.91,30.91,0,0,0-.32,31.66,29.66,29.66,0,0,0,26.84,15,29.33,29.33,0,0,0,10.87-2.43,35.74,35.74,0,0,0,11.43-8.29A113.8,113.8,0,0,0,101,459.15c5.27-7,9.83-13,16.21-14.77,8-2.19,16.66,3.31,22.15,9.18A111.33,111.33,0,0,1,149.56,467a146.08,146.08,0,0,0,9.63,13c17.68,20.55,39.87,32,61.06,32a57.12,57.12,0,0,0,10.13-.9c30.85-5.6,59.73-28.21,85.22-48.15,23-18,44.71-35,58.59-31.46,5.36,1.37,7.15,4.27,8,6.34,5.25,12.28-5.39,39.25-13.33,53.36A7.5,7.5,0,0,0,382,498.56c2.48-4.39,23.9-43.57,14.06-66.62-3.25-7.6-9.51-12.78-18.11-15-21-5.38-44.44,13-71.56,34.17C282.24,470,254.9,491.4,227.7,496.33c-18.77,3.41-40.12-6.37-57.13-26.14A130.5,130.5,0,0,1,162,458.5a124.62,124.62,0,0,0-11.59-15.18c-8.48-9.07-22.68-17.36-37.08-13.41C102,433,95.11,442.1,89.06,450.11A100,100,0,0,1,81.78,459a21.18,21.18,0,0,1-6.61,5,14,14,0,0,1-5.33,1.18,14.85,14.85,0,0,1-13.41-7.56,15.73,15.73,0,0,1,.14-16.3l23.87-39,21.19,21.19a7.5,7.5,0,0,0,10.07.49L138,402.33l.25-.2L229,327.58A7.5,7.5,0,0,0,219.45,316L133.9,386.3,86.23,338.63,245.38,145a116,116,0,0,0,82.17,82.17l-83.46,68.59a7.5,7.5,0,1,0,9.53,11.59L347,230.56c3.37.3,6.75.46,10.14.46a114.94,114.94,0,0,0,61.23-17.66,17.46,17.46,0,0,0,21.43-2.56l12.71-12.71a17.5,17.5,0,0,0,2.56-21.42A115.31,115.31,0,0,0,438.84,33.7ZM122.25,395.87l-14.82,12.19-42.95-43,12.18-14.82ZM441.93,187.48l-12.71,12.71a2.48,2.48,0,0,1-3.5,0l-96.28-96.27a7.5,7.5,0,0,0-10.6,10.6L407,202.69A100.56,100.56,0,0,1,269.81,65.5l26.77,26.77a7.5,7.5,0,1,0,10.61-10.61L272.34,46.81a2.46,2.46,0,0,1,0-3.5L285.05,30.6a2.49,2.49,0,0,1,3.5,0L441.93,184A2.47,2.47,0,0,1,441.93,187.48Z" transform="translate(-39.25 0)"/><path class="cls-1" d="M250.62,256.68h0l26.83-26.82a7.5,7.5,0,0,0,0-10.61l-24.16-24.16a7.5,7.5,0,0,0-10.61,0l-56.85,56.85a7.5,7.5,0,0,0,0,10.61L210,286.7a7.48,7.48,0,0,0,10.6,0l30-30ZM248,211l13.55,13.55-16.21,16.21-13.55-13.55Zm-32.69,59.79-13.55-13.55,19.42-19.42,13.55,13.55Z" transform="translate(-39.25 0)"/></svg>