<svg id="Layer_1" data-name="Layer 1" xmlns="http://www.w3.org/2000/svg" viewBox="0 0 241.12 245.69"><defs><style>.cls-1{fill:#fff;}</style></defs><title>screen</title><path class="cls-1" d="M141.12-69.25a4,4,0,0,0,4-4V-94a4,4,0,0,0-4-4H-92a4,4,0,0,0-4,4v20.75a4,4,0,0,0,4,4h7.56V55.39H-92a4,4,0,0,0-4,4V80.14a4,4,0,0,0,4,4H20.56V96.46l-43.65,44.43a4,4,0,0,0,.05,5.66,4,4,0,0,0,5.65-.05l15.48-15.76H51L66.5,146.5a4,4,0,1,0,5.71-5.61L28.56,96.46V84.14H141.12a4,4,0,0,0,4-4V59.39a4,4,0,0,0-4-4h-7.56V-69.25Zm-97.95,192H6L24.56,103.8Zm94-59.35V76.14H-88V63.39Zm-213.56-8V-69.25h202V55.39ZM-88-77.25V-90H137.12v12.75Zm0,0" transform="translate(96 98)"/></svg>