<?xml version="1.0" encoding="utf-8"?>
<!-- Generator: Adobe Illustrator 22.0.1, SVG Export Plug-In . SVG Version: 6.00 Build 0)  -->
<svg version="1.1" id="Layer_2" xmlns="http://www.w3.org/2000/svg" xmlns:xlink="http://www.w3.org/1999/xlink" x="0px" y="0px"
	 viewBox="0 0 150 150" style="enable-background:new 0 0 150 150;" xml:space="preserve">
<style type="text/css">
	.st0{fill:#FFFFFF;}
</style>
<g>
	<path class="st0" d="M74,43.9c11.5,0,20.8-9.3,20.8-20.8c0-11.5-9.3-20.8-20.8-20.8c-11.5,0-20.8,9.3-20.8,20.8
		C53.3,34.5,62.6,43.9,74,43.9z M74,6.9c8.9,0,16.2,7.3,16.2,16.2C90.2,32,83,39.3,74,39.3c-8.9,0-16.2-7.3-16.2-16.2
		C57.9,14.2,65.1,6.9,74,6.9z"/>
	<path class="st0" d="M48.3,121.3c0.4-0.7,0.4-1.6,0-2.3L27.5,82c-0.8-1.5-3.2-1.5-4,0L2.7,119c-0.4,0.7-0.4,1.6,0,2.3
		c0.4,0.7,1.2,1.2,2,1.2h41.6C47.1,122.5,47.9,122,48.3,121.3z M8.7,117.8l16.8-30l16.8,30H8.7z"/>
	<path class="st0" d="M145.7,80.9h-37c-1.3,0-2.3,1-2.3,2.3v37c0,1.3,1,2.3,2.3,2.3h37c1.3,0,2.3-1,2.3-2.3v-37
		C148,81.9,147,80.9,145.7,80.9z M143.4,117.8H111V85.5h32.4V117.8z"/>
	<path class="st0" d="M74,134c-10.7,0-21.1-3.1-30.1-8.9l-2.5,3.9c9.7,6.3,21,9.6,32.6,9.6c12.1,0,23.7-3.6,33.7-10.3l-2.6-3.8
		C95.9,130.7,85.2,134,74,134z"/>
	<path class="st0" d="M129.5,76.3l4.6-0.2c-0.9-22.1-13.7-41.8-33.6-51.6l-2,4.1C116.8,37.7,128.7,56,129.5,76.3z"/>
	<path class="st0" d="M18.7,83c-0.1-1.5-0.2-3-0.2-4.4c0-21.3,11.9-40.4,31.1-49.8l-2-4.1C26.9,34.8,14,55.4,14,78.5
		c0,1.6,0.1,3.2,0.2,4.8L18.7,83z"/>
	<path class="st0" d="M40.1,19.1l3.3,3.3l6.9-6.9c0.9-0.9,0.9-2.4,0-3.3l-6.9-6.9l-3.3,3.3l3,3H27.8v4.6H43L40.1,19.1z"/>
	<path class="st0" d="M138.8,55.4c0.6,0,1.2-0.2,1.6-0.7l6.9-6.9l-3.3-3.3l-3,3V32.3h-4.6v15.2l-3-3l-3.3,3.3l6.9,6.9
		C137.6,55.2,138.2,55.4,138.8,55.4z"/>
	<path class="st0" d="M23.9,127.8l-6.9,6.9l3.3,3.3l3-3v15.2h4.6V135l3,3l3.3-3.3l-6.9-6.9C26.2,126.9,24.8,126.9,23.9,127.8z"/>
	<path class="st0" d="M94.8,76.2c0-7.4-4-14.3-10.4-18l-2.3,4c5,2.9,8.1,8.2,8.1,14c0,7.5-5.2,13.9-12.2,15.7l2.7-5.4l-4.1-2.1
		L72,93.7c-0.5,0.9-0.3,2,0.4,2.7l6.9,6.9l3.3-3.3L79,96.4C88.1,94.2,94.8,86,94.8,76.2z"/>
	<path class="st0" d="M63.7,94.3l2.3-4c-5-2.9-8.1-8.3-8.1-14c0-7.5,5.2-13.9,12.2-15.7L67.4,66l4.1,2.1l4.6-9.2
		c0.4-0.9,0.3-2-0.4-2.7l-6.9-6.9l-3.3,3.3l3.6,3.6C60,58.3,53.3,66.5,53.3,76.2C53.3,83.6,57.2,90.6,63.7,94.3z"/>
</g>
</svg>
